<?xml version="1.0" encoding="utf-8"?>
<svg xmlns="http://www.w3.org/2000/svg" style="margin: auto; background-color: rgba(241, 242, 243, 0); display: block; shape-rendering: auto; background-position: initial initial; background-repeat: initial initial;" width="289" height="250" preserveAspectRatio="xMidYMid">
<style type="text/css">
  text {
    text-anchor: middle; font-size: 114px; opacity: 0;
  }
</style>
<g style="transform-origin: 144.5px 125px; transform: scale(1.425);">
<g transform="translate(144.5,125)">
  <g transform="translate(-10,0)"><g class="path" style="transform: scale(0.9099999999999999); transform-origin: -55.159976959228516px -1.1315956115722656px; animation: breath-b7531247-c222-48f9-b142-bd83afd3b18d 3.3333333333333335s linear -1.6500000000000001s infinite normal forwards;"><path d="M70.08-4.16L70.08-4.16Q66.32 0.24 59.96 2.88L59.96 2.88L59.96 2.88Q53.60 5.52 46.92 5.52L46.92 5.52L46.92 5.52Q40.24 5.52 35.60 4.24L35.60 4.24L35.60 4.24Q30.08 8.16 23.84 8.16L23.84 8.16L23.84 6.64L23.84 6.64Q26.96 6.56 28.36 5.80L28.36 5.80L28.36 5.80Q29.76 5.04 30.80 2.56L30.80 2.56L30.80 2.56Q26.64 0.72 23.52-2.12L23.52-2.12L23.52-2.12Q20.40-4.96 19.32-6.72L19.32-6.72L19.32-6.72Q18.24-8.48 18.24-8.80L18.24-8.80L19.68-9.36L19.68-9.36Q19.68-9.04 20.68-7.44L20.68-7.44L20.68-7.44Q21.68-5.84 24.60-3.16L24.60-3.16L24.60-3.16Q27.52-0.48 31.36 1.20L31.36 1.20L31.36 1.20Q32.48-1.60 33.20-5.76L33.20-5.76L40.32-46.88L40.32-46.88Q32-46.24 25.60-43.60L25.60-43.60L25.60-43.60Q31.04-37.84 31.04-29.84L31.04-29.84L31.04-29.84Q31.04-22.48 27.08-18.04L27.08-18.04L27.08-18.04Q23.12-13.60 18.32-13.60L18.32-13.60L18.32-13.60Q13.52-13.60 10.96-16.52L10.96-16.52L10.96-16.52Q8.40-19.44 8.40-23.44L8.40-23.44L8.40-23.44Q8.40-29.68 11.92-35.16L11.92-35.16L11.92-35.16Q15.44-40.64 22.80-44.16L22.80-44.16L22.80-44.16Q17.52-48.64 8.88-50.08L8.88-50.08L9.20-51.60L9.20-51.60Q18.88-49.84 24.32-44.80L24.32-44.80L24.32-44.80Q34-48.72 47.96-48.72L47.96-48.72L47.96-48.72Q61.92-48.72 69.92-42.36L69.92-42.36L69.92-42.36Q77.92-36 77.92-24.64L77.92-24.64L77.92-24.64Q77.92-13.04 70.08-4.16L70.08-4.16zM45.60 4.08L45.60 4.08L45.60 4.08Q53.20 4.08 59.28 1.56L59.28 1.56L59.28 1.56Q65.36-0.96 68.96-5.12L68.96-5.12L68.96-5.12Q76.40-13.60 76.40-24.12L76.40-24.12L76.40-24.12Q76.40-34.64 69.52-40.56L69.52-40.56L69.52-40.56Q62.64-46.48 50.32-47.12L50.32-47.12L50.32-47.12Q46.40-20.64 44.16-9.04L44.16-9.04L44.16-9.04Q42.72-1.68 37.12 3.12L37.12 3.12L37.12 3.12Q41.36 4.08 45.60 4.08zM9.92-23.44L9.92-23.44L9.92-23.44Q9.92-20.16 12.04-17.64L12.04-17.64L12.04-17.64Q14.16-15.12 18.36-15.12L18.36-15.12L18.36-15.12Q22.56-15.12 25.76-18.80L25.76-18.80L25.76-18.80Q28.96-22.48 29.44-28.16L29.44-28.16L29.44-28.16Q29.52-29.20 29.52-30.24L29.52-30.24L29.52-30.24Q29.52-37.44 24-42.96L24-42.96L24-42.96Q16.80-39.68 13.36-34.52L13.36-34.52L13.36-34.52Q9.92-29.36 9.92-23.44" fill="#0051a2" stroke="none" stroke-width="none" transform="translate(-98.31997680664062,20.58840301513672)" style="fill: rgb(0, 81, 162);"></path></g><g class="path" style="transform: scale(0.9099999999999999); transform-origin: -2.239978790283203px 5.388402938842773px; animation: breath-b7531247-c222-48f9-b142-bd83afd3b18d 3.3333333333333335s linear -1.1s infinite normal forwards;"><path d="M99.60-31.12L99.60-31.12L99.60-31.12Q109.76-31.12 109.76-23.04L109.76-23.04L109.76-23.04Q109.76-18 105.00-15.40L105.00-15.40L105.00-15.40Q100.24-12.80 91.44-12.72L91.44-12.72L91.44-12.72Q91.28-9.84 91.28-8.16L91.28-8.16L91.28-8.16Q91.28-4.56 92.92-2.84L92.92-2.84L92.92-2.84Q94.56-1.12 97.04-1.12L97.04-1.12L97.04-1.12Q99.52-1.12 101.56-2.08L101.56-2.08L101.56-2.08Q103.60-3.04 104.80-4.36L104.80-4.36L104.80-4.36Q106.00-5.68 106.88-7.12L106.88-7.12L106.88-7.12Q108.48-9.76 108.48-10.48L108.48-10.48L109.92-9.84L109.92-9.84Q109.68-8.56 108.48-6.44L108.48-6.44L108.48-6.44Q107.28-4.32 105.84-2.96L105.84-2.96L105.84-2.96Q104.40-1.60 101.60-0.44L101.60-0.44L101.60-0.44Q98.80 0.72 95.36 0.72L95.36 0.72L95.36 0.72Q88.88 0.72 85.56-2.36L85.56-2.36L85.56-2.36Q82.24-5.44 82.24-10.80L82.24-10.80L82.24-10.80Q82.24-20.32 86.96-25.72L86.96-25.72L86.96-25.72Q91.68-31.12 99.60-31.12zM107.76-23.04L107.76-23.04Q107.76-25.68 106.20-27.40L106.20-27.40L106.20-27.40Q104.64-29.12 101.56-29.12L101.56-29.12L101.56-29.12Q98.48-29.12 95.56-25.44L95.56-25.44L95.56-25.44Q92.64-21.76 91.68-14.56L91.68-14.56L91.68-14.56Q107.76-14.64 107.76-23.04L107.76-23.04" fill="#0051a2" stroke="none" stroke-width="none" transform="translate(-98.31997680664062,20.58840301513672)" style="fill: rgb(27, 117, 190);"></path></g><g class="path" style="transform: scale(0.9099999999999999); transform-origin: 43.920021057128906px 5.388402938842773px; animation: breath-b7531247-c222-48f9-b142-bd83afd3b18d 3.3333333333333335s linear -0.55s infinite normal forwards;"><path d="M144.56-0.88L144.56-0.88L144.56-0.88Q146.48-0.88 148.56-3.12L148.56-3.12L149.76-2.16L149.76-2.16Q149.20-1.04 147.28-0.16L147.28-0.16L147.28-0.16Q145.36 0.72 143.04 0.72L143.04 0.72L143.04 0.72Q135.76 0.72 135.76-5.84L135.76-5.84L135.76-5.84Q135.76-8.64 137.20-15.84L137.20-15.84L137.20-15.84Q138.64-23.04 138.64-25.28L138.64-25.28L138.64-25.28Q138.64-28.72 135.36-28.72L135.36-28.72L135.36-28.72Q130.40-28.72 127.04-16L127.04-16L124.16 0L114.56 0L119.84-29.52L119.84-29.52Q117.44-29.28 115.84-27.28L115.84-27.28L114.64-28.24L114.64-28.24Q117.04-31.12 120.68-31.12L120.68-31.12L120.68-31.12Q124.32-31.12 126.32-29.28L126.32-29.28L126.32-29.28Q128.32-27.44 128.32-24.08L128.32-24.08L128.32-23.84L128.32-23.84Q131.44-31.12 137.76-31.12L137.76-31.12L137.76-31.12Q142.24-31.12 144.84-28.68L144.84-28.68L144.84-28.68Q147.44-26.24 147.68-21.84L147.68-21.84L147.68-21.84Q149.20-26.24 151.52-28.68L151.52-28.68L151.52-28.68Q153.84-31.12 158.24-31.12L158.24-31.12L158.24-31.12Q162.64-31.12 165.28-28.44L165.28-28.44L165.28-28.44Q167.92-25.76 167.92-21.04L167.92-21.04L167.92-21.04Q167.92-18.56 166.40-11.48L166.40-11.48L166.40-11.48Q164.88-4.40 164.72-0.88L164.72-0.88L164.72-0.88Q166.64-0.88 168.72-3.12L168.72-3.12L169.92-2.16L169.92-2.16Q169.36-1.04 167.44-0.16L167.44-0.16L167.44-0.16Q165.52 0.72 163.20 0.72L163.20 0.72L163.20 0.72Q155.92 0.72 155.92-5.84L155.92-5.84L155.92-5.84Q155.92-8.64 157.36-15.84L157.36-15.84L157.36-15.84Q158.80-23.04 158.80-25.28L158.80-25.28L158.80-25.28Q158.80-28.72 155.52-28.72L155.52-28.72L155.52-28.72Q149.76-28.72 146.24-11.60L146.24-11.60L146.24-11.60Q144.72-4.32 144.56-0.88" fill="#0051a2" stroke="none" stroke-width="none" transform="translate(-98.31997680664062,20.58840301513672)" style="fill: rgb(64, 142, 224);"></path></g><g class="path" style="transform: scale(0.9099999999999999); transform-origin: 91.0400161743164px 5.388402938842773px; animation: breath-b7531247-c222-48f9-b142-bd83afd3b18d 3.3333333333333335s linear 0s infinite normal forwards;"><path d="M186.24 0.72L186.24 0.72Q180.08 0.72 176.88-2.36L176.88-2.36L176.88-2.36Q173.68-5.44 173.68-10.12L173.68-10.12L173.68-10.12Q173.68-14.80 174.52-18.12L174.52-18.12L174.52-18.12Q175.36-21.44 177.28-24.52L177.28-24.52L177.28-24.52Q179.20-27.60 183.08-29.36L183.08-29.36L183.08-29.36Q186.96-31.12 192.76-31.12L192.76-31.12L192.76-31.12Q198.56-31.12 201.80-28.04L201.80-28.04L201.80-28.04Q205.04-24.96 205.04-19.60L205.04-19.60L205.04-19.60Q205.04-10.48 200.20-4.88L200.20-4.88L200.20-4.88Q195.36 0.72 186.24 0.72L186.24 0.72zM182.72-7.52L182.72-7.52L182.72-7.52Q182.72-1.12 186.44-1.12L186.44-1.12L186.44-1.12Q190.16-1.12 193.08-7.56L193.08-7.56L193.08-7.56Q196-14 196-22.88L196-22.88L196-22.88Q196-29.60 192.36-29.60L192.36-29.60L192.36-29.60Q188.72-29.60 185.72-23.48L185.72-23.48L185.72-23.48Q182.72-17.36 182.72-7.52" fill="#0051a2" stroke="none" stroke-width="none" transform="translate(-98.31997680664062,20.58840301513672)" style="fill: rgb(137, 191, 248);"></path></g></g>
</g>
</g>
<style id="breath-b7531247-c222-48f9-b142-bd83afd3b18d" data-anikit="">@keyframes breath-b7531247-c222-48f9-b142-bd83afd3b18d
{
  0% {
    animation-timing-function: cubic-bezier(0.9647,0.2413,-0.0705,0.7911);
    transform: scale(0.9099999999999999);
  }
  51% {
    animation-timing-function: cubic-bezier(0.9226,0.2631,-0.0308,0.7628);
    transform: scale(1.02994);
  }
  100% {
    transform: scale(0.9099999999999999);
  }
}</style></svg>