<svg preserveAspectRatio="xMidYMid" style="background-color:transparent;background-position:initial initial;background-repeat:initial initial" viewBox="-38.545 -100.548 577.09 351.096" xmlns="http://www.w3.org/2000/svg" height="351.096" width="577.09"><defs><filter height="300%" width="300%" y="-100%" x="-100%" id="a"><feFlood result="flood-surface" flood-color="#5699d2"></feFlood><feFlood result="flood-extrude" flood-color="#d8ebf9"></feFlood><feMorphology result="erode" radius="1" in="SourceAlpha"></feMorphology><feConvolveMatrix kernelMatrix="0 0 0 1 1 1 1 1 0 0 0 0 0 1 0 0 0 0 0 1 0 0 0 0 1 0 0 0 0 0 1 0 0 0 0 1 0 0 0 0 0 1 0 0 0 0 1 0 0 0 0 0 1 0 0 0 0 0 1 0 0 0 1 0 0 0 0 0 0 1 1 0 1 1 0 0 0 0 0 0 0 0 1 0 0 0 0 0" divisor="1" order="11,8" result="shadow" in="erode"></feConvolveMatrix><feOffset result="offset" in="shadow" dy="4"></feOffset><feGaussianBlur result="blur" stdDeviation=".2" in="offset"></feGaussianBlur><feComposite result="extrude" in2="blur" in="flood-extrude" operator="in"></feComposite><feMorphology result="erode2" radius="1" in="SourceAlpha"></feMorphology><feConvolveMatrix kernelMatrix="0 1 1 0 1 0 0 1 1 0 0 1 0 1 1 0" divisor="1" order="4,4" result="out" in="erode2"></feConvolveMatrix><feComposite result="text" in2="out" in="flood-surface" operator="in"></feComposite><feMerge><feMergeNode in="extrude"></feMergeNode><feMergeNode in="text"></feMergeNode></feMerge></filter></defs><g filter="url(#a)"><path d="M38.885 125.507q0-7.57 5.81-12.32t13.91-4.75q8.09 0 16.72 3.87.88-2.11 4.13-12.23 3.26-10.12 6.07-26.58 2.82-16.46 2.82-23.32 0-6.86-3.87-10.38v-1.76q10.21-5.28 23.93-5.28l7.4.7q.88 2.11.88 8.1 0 19.71-7.04 41.62-7.04 21.91-18.31 37.4 12.67 6.69 20.95 6.69 8.27 0 14.87-7.48t10.29-18.57q7.92-22.88 7.92-41.45 0-18.57-9.85-27.54-9.86-8.98-29.31-8.98-19.44 0-35.9 11.09-16.46 11.09-16.46 25.7 0 6.16 3 9.15 2.99 2.99 8.09 4.75-.17 6.69-3.87 13.55-7.22-1.41-13.02-8.01-5.81-6.6-5.81-18.04 0-21.12 20.06-35.11 20.07-13.99 50.16-13.99 25.35 0 42.07 11.79 8.44 5.99 13.11 16.46 4.66 10.47 4.66 26.75t-7.21 33.79q-7.22 17.51-21.04 29.31-13.81 11.79-29.74 11.79-15.93 0-32.47-11.09-11.79 10.91-23.94 10.91-8.27 0-13.64-4.49-5.37-4.48-5.37-12.05zm18.48 3.17q6.52 0 11.62-5.99-6.51-3.69-10.38-3.69-8.1 0-8.1 4.75 0 2.11 1.76 3.52 1.76 1.41 5.1 1.41zm120.04-19.19q0-22 13.28-34.76 13.29-12.76 30.19-12.76 10.38 0 17.07 5.11 6.69 5.1 6.69 13.64 0 8.53-4.31 14.34-4.32 5.81-10.48 8.98-12.49 6.16-22.88 7.74l-4.22.53q1.23 16.54 13.55 16.54 4.23 0 8.98-2.11t7.39-4.22l2.64-2.12 4.22 5.64q-1.4 1.93-5.63 5.1-4.22 3.17-7.92 5.28-10.21 5.63-22.35 5.63t-19.18-8.62q-7.04-8.63-7.04-23.94zm25.16-5.81q8.98-1.58 14.26-7.56 5.28-5.99 5.28-15.49 0-9.51-5.63-9.51-6.69 0-10.3 11.36-3.61 11.35-3.61 21.2zm50.52 36.79h-3.35q0-8.27 5.02-31.68 5.01-23.41 5.01-26.58 0-5.81-4.92-12.32l-1.59-2.11.18-2.29q9.5-2.64 30.45-2.64 2.46 3.35 2.46 10.91 15.84-11.79 25.17-11.79 11.79 0 13.9 12.15 4.75-3.88 12.41-8.01 7.66-4.14 13.73-4.14t10.12 3.96q4.05 3.96 4.05 11t-3.88 23.23q-3.87 16.2-3.87 21.74 0 5.54 1.59 5.54 1.05 0 7.21-3.34l1.94-1.06 3.17 6.16q-4.58 4.58-12.41 8.72-7.83 4.13-13.82 4.13-13.2 0-13.2-14.96 0-5.45 3.79-21.91 3.78-16.46 3.78-21.47 0-5.02-2.99-5.02-5.11 0-11.62 3.87-.35 3.52-4.84 23.94t-4.49 31.68q-5.1 2.29-23.93 2.29-.35-1.94-.35-9.33 0-7.39 4.13-25.17 4.14-17.77 4.14-22.53 0-4.75-3.35-4.75-5.28 0-11.61 4.23-.35 1.58-3.52 15.48-6.34 27.81-6.34 39.6-6.16 2.47-22.17 2.47zm149.07 1.58q-12.15 0-19.01-8.53-6.86-8.54-6.86-23.85 0-19.54 10.47-33.62 10.47-14.08 28.95-14.08l6.34.35q2.99-1.58 6.68-1.58 13.91 0 13.91 26.22 7.21-.35 14.61-1.93l2.81-.71 1.06 6.87q-5.81 2.46-15.67 4.4l-3.52.7q-3.34 18.48-13.55 32.12-10.21 13.64-26.22 13.64zm9.5-15.13q7.39 0 13.29-9.51 5.9-9.5 8.18-20.06-18.83 0-18.83-14.08 0-5.63 2.29-10.56l.88-1.76q-.7-.35-1.76-.35t-1.58.35q-4.4 2.81-8.28 13.2-3.87 10.38-3.87 23.76 0 19.01 9.68 19.01z"></path></g><style></style></svg>